# Blender v2.82 (sub 7) OBJ File: 'trunk1.blend'
# www.blender.org
mtllib trunk1.mtl
o Logs
v 0.600489 0.135516 -1.383144
v -0.385372 -2.256635 -1.158220
v 0.665926 -2.259225 -1.335654
v 1.408732 -2.262509 -0.671591
v 1.388534 0.130751 -0.691631
v 1.439510 0.070289 0.243150
v 1.416052 -2.325350 0.326771
v 0.873898 0.036458 1.120441
v 0.688438 -2.355540 1.080078
v -0.320421 0.022543 1.202252
v -0.449698 -2.369856 1.170131
v -1.314432 0.064300 0.390692
v -1.240241 -2.333245 0.503031
v -1.163432 -2.275199 -0.400279
v -1.286103 0.125770 -0.573955
v -0.589683 0.138026 -1.267480
v -0.138291 -4.755713 0.966320
v -0.358463 -4.647588 -1.280779
v -1.113819 -4.717999 0.304076
v 1.185705 -4.742609 0.873803
v 1.631975 -4.654944 -0.705046
v 0.787817 -4.651927 -1.345835
v -1.134099 -4.658868 -0.597105
v 0.481215 4.925345 -1.488299
v 1.486052 4.861797 0.070535
v -1.441554 4.918469 -0.740933
v -0.435634 4.821726 0.818373
v -1.324067 4.855238 0.240941
v -0.634681 4.930800 -1.454706
v 0.541271 2.530453 -1.436322
v -0.735428 2.538750 -1.526125
v 1.443775 2.527626 -0.809799
v 1.357350 4.923397 -0.878151
v 1.450113 2.465933 0.161561
v 0.624031 4.832890 0.816017
v 0.688994 2.438274 0.860637
v 1.782540 -4.715576 0.217087
v -0.450412 2.424185 0.945550
v -1.252889 2.460674 0.283313
v -1.453035 2.531104 -0.798701
vt 0.069400 0.500000
vt 0.069400 0.250000
vt 0.000000 0.250000
vt 0.128300 0.500000
vt 0.128300 0.250000
vt 0.187100 0.500000
vt 0.187100 0.250000
vt 0.256500 0.500000
vt 0.256500 0.250000
vt 0.318400 0.500000
vt 0.325900 0.250000
vt 0.384800 0.500000
vt 0.384800 0.250000
vt 0.443700 0.500000
vt 0.439000 0.250000
vt 0.513100 0.500000
vt 0.513100 0.250000
vt 0.663000 0.219700
vt 0.662100 0.317100
vt 0.827600 0.387600
vt 0.732600 0.151500
vt 0.898100 0.222000
vt 0.897200 0.319400
vt 0.730300 0.386600
vt 0.732900 0.922400
vt 0.899800 0.855200
vt 0.665700 0.755500
vt 0.832600 0.688300
vt 0.900800 0.757800
vt 0.830300 0.923400
vt 0.000000 1.000000
vt 0.069400 1.000000
vt 0.069400 0.750000
vt 0.000000 0.750000
vt 0.000000 0.000000
vt 0.128300 1.000000
vt 0.128300 0.750000
vt 0.128300 0.000000
vt 0.069400 0.000000
vt 0.187100 1.000000
vt 0.187100 0.750000
vt 0.256500 1.000000
vt 0.256500 0.750000
vt 0.256500 0.000000
vt 0.187100 0.000000
vt 0.325900 1.000000
vt 0.325900 0.750000
vt 0.384800 1.000000
vt 0.384800 0.750000
vt 0.384800 0.000000
vt 0.325900 0.000000
vt 0.443700 1.000000
vt 0.450600 0.750000
vt 0.443700 0.000000
vt 0.513100 1.000000
vt 0.513100 0.750000
vt 0.000000 0.500000
vt 0.829900 0.152500
vt 0.664700 0.852900
vt 0.735200 0.687300
vt 0.513100 0.000000
vn 0.3161 -0.0425 -0.9478
vn 0.2762 0.0341 -0.9605
vn -0.4498 -0.0365 -0.8924
vn 0.8979 0.0002 -0.4402
vn 0.8987 0.0296 -0.4375
vn 0.9596 -0.0291 0.2799
vn 0.9297 -0.0023 0.3684
vn 0.4974 0.0084 0.8675
vn 0.3940 -0.0444 0.9180
vn -0.2868 0.0429 0.9570
vn -0.3174 -0.0627 0.9462
vn -0.9123 0.0227 0.4089
vn -0.9159 -0.0673 0.3957
vn -0.9247 -0.0468 -0.3777
vn -0.9150 -0.0275 -0.4026
vn -0.4174 -0.0971 -0.9035
vn 0.0171 -0.9947 -0.1018
vn -0.0133 -0.9986 -0.0509
vn -0.0030 -0.9993 -0.0374
vn 0.0034 -0.9978 -0.0668
vn 0.0020 -0.9990 -0.0438
vn -0.0038 -1.0000 0.0003
vn -0.0423 -0.9970 -0.0645
vn 0.0025 0.9991 0.0429
vn 0.0153 0.9982 0.0573
vn -0.0242 0.9992 0.0326
vn 0.0029 0.9985 0.0544
vn -0.0045 0.9979 0.0648
vn 0.0056 0.9997 0.0236
vn -0.3387 0.0130 -0.9408
vn 0.3020 -0.0099 -0.9533
vn 0.3177 -0.0232 -0.9479
vn -0.3442 -0.0186 -0.9387
vn -0.4240 0.0184 -0.9055
vn 0.8568 0.0196 -0.5152
vn 0.8791 -0.0261 -0.4759
vn 0.8972 0.1114 -0.4274
vn 0.2872 0.0154 -0.9578
vn 0.9328 0.0229 0.3596
vn 0.9150 -0.0410 0.4013
vn 0.3785 0.0215 0.9253
vn 0.4053 0.0517 0.9127
vn 0.4697 0.0162 0.8827
vn 0.9380 0.1366 0.3187
vn -0.2998 0.0210 0.9538
vn -0.3108 0.0671 0.9481
vn -0.8609 -0.0019 0.5088
vn -0.8696 0.0121 0.4936
vn -0.9019 -0.0967 0.4209
vn -0.2546 -0.1117 0.9606
vn -0.9423 0.0085 -0.3347
vn -0.9396 -0.0228 -0.3414
vn -0.9044 -0.0010 -0.4267
vn -0.1297 -0.9869 -0.0958
vn -0.2139 0.9617 0.1715
vn -0.0414 0.9970 -0.0659
usemtl Material.001
s 1
f 1/1/1 3/2/2 2/3/3
f 1/1/1 5/4/4 4/5/5
f 6/6/6 7/7/7 4/5/5
f 8/8/8 9/9/9 7/7/7
f 10/10/10 11/11/11 9/9/9
f 12/12/12 13/13/13 11/11/11
f 12/12/12 15/14/14 14/15/15
f 16/16/16 2/17/3 14/15/15
f 17/18/17 19/19/18 18/20/19
f 20/21/20 18/20/19 21/22/21
f 21/22/21 18/20/19 22/23/22
f 23/24/23 18/20/19 19/19/18
f 24/25/24 26/26/25 25/27/26
f 25/27/26 26/26/25 27/28/27
f 27/28/27 26/26/25 28/29/28
f 29/30/29 26/26/25 24/25/24
f 29/31/30 24/32/31 30/33/32
f 31/34/33 30/33/32 1/1/1
f 18/35/34 2/3/3 3/2/2
f 24/32/31 33/36/35 32/37/36
f 30/33/32 32/37/36 5/4/4
f 21/38/37 22/39/38 3/2/2
f 25/40/39 34/41/40 32/37/36
f 34/41/40 6/6/6 5/4/4
f 21/38/37 4/5/5 7/7/7
f 35/42/41 36/43/42 34/41/40
f 36/43/42 8/8/8 6/6/6
f 20/44/43 37/45/44 7/7/7
f 27/46/45 38/47/46 36/43/42
f 38/47/46 10/10/10 8/8/8
f 20/44/43 9/9/9 11/11/11
f 27/46/45 28/48/47 39/49/48
f 38/47/46 39/49/48 12/12/12
f 19/50/49 17/51/50 11/11/11
f 28/48/47 26/52/51 40/53/52
f 39/49/48 40/53/52 15/14/14
f 23/54/53 19/50/49 13/13/13
f 29/55/30 31/56/33 40/53/52
f 31/56/33 16/16/16 15/14/14
f 23/54/53 14/15/15 2/17/3
f 1/1/1 2/3/3 16/57/16
f 1/1/1 4/5/5 3/2/2
f 6/6/6 4/5/5 5/4/4
f 8/8/8 7/7/7 6/6/6
f 10/10/10 9/9/9 8/8/8
f 12/12/12 11/11/11 10/10/10
f 12/12/12 14/15/15 13/13/13
f 16/16/16 14/15/15 15/14/14
f 17/18/17 18/20/19 20/21/20
f 20/21/20 21/22/21 37/58/54
f 24/25/24 25/27/26 33/59/55
f 25/27/26 27/28/27 35/60/56
f 29/31/30 30/33/32 31/34/33
f 31/34/33 1/1/1 16/57/16
f 18/35/34 3/2/2 22/39/38
f 24/32/31 32/37/36 30/33/32
f 30/33/32 5/4/4 1/1/1
f 21/38/37 3/2/2 4/5/5
f 25/40/39 32/37/36 33/36/35
f 34/41/40 5/4/4 32/37/36
f 21/38/37 7/7/7 37/45/44
f 35/42/41 34/41/40 25/40/39
f 36/43/42 6/6/6 34/41/40
f 20/44/43 7/7/7 9/9/9
f 27/46/45 36/43/42 35/42/41
f 38/47/46 8/8/8 36/43/42
f 20/44/43 11/11/11 17/51/50
f 27/46/45 39/49/48 38/47/46
f 38/47/46 12/12/12 10/10/10
f 19/50/49 11/11/11 13/13/13
f 28/48/47 40/53/52 39/49/48
f 39/49/48 15/14/14 12/12/12
f 23/54/53 13/13/13 14/15/15
f 29/55/30 40/53/52 26/52/51
f 31/56/33 15/14/14 40/53/52
f 23/54/53 2/17/3 18/61/34
