# Blender v2.82 (sub 7) OBJ File: ''
# www.blender.org
mtllib trunk.mtl
o Logs
v -1.593039 -4.438508 -0.782618
v 1.580702 -4.062969 -0.744543
v 0.972167 -3.347937 24.202827
v -1.830996 -3.919811 24.210928
v -3.697222 -2.235310 -1.161498
v -3.814397 -1.804191 23.835028
v -3.838032 0.757019 -1.004811
v -3.839065 1.391671 23.989107
v -2.333555 3.565300 -1.034078
v -1.902014 3.804623 24.000772
v 0.850931 3.835339 -0.806933
v 1.132595 4.100711 24.222191
v 3.505803 1.244511 -0.733065
v 3.244198 1.970553 24.256277
v 3.435246 -1.843744 -0.893427
v 3.044042 -0.921696 24.095879
v 2.844721 1.700844 49.263069
v 0.239768 3.814615 49.223927
v -3.290537 3.509794 48.997284
v 0.837652 -3.372313 49.246239
v -4.879233 1.406340 48.983513
v -4.472868 -1.545082 48.828938
v -2.219258 -3.585805 49.206352
v 2.903514 -1.184224 49.100250
v -1.148010 -5.508494 -50.769428
v -3.486764 -3.565908 -51.145897
v -3.834939 -0.529467 -50.992306
v 3.977046 -3.111270 -50.875420
v -1.539378 1.859079 -50.976273
v 1.286347 1.874351 -50.751781
v 3.658619 0.031405 -50.720325
v 1.828007 -5.395758 -50.728500
v 2.033731 -5.256024 -25.686209
v -1.371638 -4.975422 -25.775997
v -3.780795 -2.980590 -26.154230
v -3.802720 0.128925 -25.998480
v -1.776060 2.368600 -25.982540
v 1.261962 2.648254 -25.760773
v 3.405372 0.533708 -25.726637
v 3.944781 -2.929196 -25.898140
vt 0.069400 0.500000
vt 0.000000 0.250000
vt 0.069400 0.250000
vt 0.128300 0.250000
vt 0.128300 0.500000
vt 0.187100 0.500000
vt 0.187100 0.250000
vt 0.256500 0.500000
vt 0.256500 0.250000
vt 0.318400 0.500000
vt 0.325900 0.250000
vt 0.384800 0.500000
vt 0.384800 0.250000
vt 0.439000 0.250000
vt 0.443700 0.500000
vt 0.513100 0.500000
vt 0.513100 0.250000
vt 0.663000 0.219700
vt 0.827600 0.387600
vt 0.662100 0.317100
vt 0.732600 0.151500
vt 0.898100 0.222000
vt 0.897200 0.319400
vt 0.730300 0.386600
vt 0.732900 0.922400
vt 0.665700 0.755500
vt 0.899800 0.855200
vt 0.832600 0.688300
vt 0.900800 0.757800
vt 0.830300 0.923400
vt 0.000000 1.000000
vt 0.069400 0.750000
vt 0.069400 1.000000
vt 0.000000 0.750000
vt 0.000000 0.000000
vt 0.128300 0.750000
vt 0.128300 1.000000
vt 0.128300 0.000000
vt 0.069400 0.000000
vt 0.187100 1.000000
vt 0.187100 0.750000
vt 0.256500 1.000000
vt 0.256500 0.750000
vt 0.256500 0.000000
vt 0.187100 0.000000
vt 0.325900 1.000000
vt 0.325900 0.750000
vt 0.384800 0.750000
vt 0.384800 1.000000
vt 0.384800 0.000000
vt 0.325900 0.000000
vt 0.450600 0.750000
vt 0.443700 1.000000
vt 0.443700 0.000000
vt 0.513100 1.000000
vt 0.513100 0.750000
vt 0.000000 0.500000
vt 0.829900 0.152500
vt 0.664700 0.852900
vt 0.735200 0.687300
vt 0.513100 0.000000
vn -0.3403 -0.9397 0.0336
vn 0.5308 -0.8474 0.0117
vn -0.2913 -0.9566 0.0035
vn -0.9381 -0.3463 -0.0045
vn -0.9214 -0.3887 0.0045
vn -0.9752 0.2176 0.0412
vn -0.9316 0.3634 -0.0106
vn -0.5557 0.8313 0.0129
vn -0.4475 0.8942 -0.0057
vn 0.3336 0.9424 -0.0256
vn 0.3540 0.9352 0.0032
vn 0.9279 0.3725 -0.0168
vn 0.9454 0.3258 0.0108
vn 0.9235 -0.3833 0.0152
vn 0.9307 -0.3647 0.0282
vn 0.4872 -0.8724 0.0401
vn -0.0625 -0.0546 0.9965
vn -0.0277 0.0203 0.9994
vn 0.0109 -0.0087 0.9999
vn -0.0376 -0.0216 0.9991
vn -0.0510 0.0093 0.9987
vn -0.0238 0.1563 0.9874
vn 0.1265 -0.0533 0.9905
vn 0.0424 -0.0291 -0.9987
vn 0.0829 0.0018 -0.9966
vn 0.0065 -0.0057 -1.0000
vn 0.0434 0.0199 -0.9989
vn 0.0558 0.0549 -0.9969
vn 0.0167 -0.0798 -0.9967
vn 0.4291 -0.9032 0.0114
vn -0.3952 -0.9184 0.0189
vn -0.3112 -0.9503 0.0138
vn 0.3956 -0.9173 0.0463
vn 0.3914 -0.9201 0.0136
vn -0.9049 -0.4254 0.0112
vn -0.8685 -0.4957 -0.0022
vn -0.8641 -0.5027 -0.0270
vn -0.3295 -0.9441 0.0101
vn -0.9555 0.2945 -0.0157
vn -0.9179 0.3968 -0.0044
vn -0.3802 0.9247 -0.0172
vn -0.4380 0.8985 -0.0306
vn -0.4918 0.8706 -0.0151
vn -0.9745 0.2198 -0.0458
vn 0.3080 0.9512 -0.0182
vn 0.3430 0.9387 -0.0343
vn 0.8856 0.4644 -0.0085
vn 0.8744 0.4852 -0.0060
vn 0.8776 0.4789 0.0199
vn 0.2770 0.9607 0.0186
vn 0.9709 -0.2392 0.0112
vn 0.9369 -0.3495 0.0078
vn 0.9357 -0.3527 0.0088
vn 0.1602 -0.0703 0.9846
vn 0.3817 0.1653 -0.9094
vn 0.1199 -0.1573 -0.9802
usemtl Material__30
s 1
f 1/1/1 3/2/2 4/3/3
f 1/1/1 6/4/4 5/5/5
f 7/6/6 6/4/4 8/7/7
f 9/8/8 8/7/7 10/9/9
f 11/10/10 10/9/9 12/11/11
f 13/12/12 12/11/11 14/13/13
f 13/12/12 16/14/14 15/15/15
f 2/16/16 16/14/14 3/17/2
f 18/18/17 20/19/18 17/20/19
f 19/21/20 22/22/21 20/19/18
f 22/22/21 23/23/22 20/19/18
f 24/24/23 17/20/19 20/19/18
f 25/25/24 27/26/25 28/27/26
f 27/26/25 30/28/27 28/27/26
f 30/28/27 31/29/28 28/27/26
f 32/30/29 25/25/24 28/27/26
f 32/31/30 34/32/31 25/33/32
f 33/34/33 1/1/1 34/32/31
f 20/35/34 4/3/3 3/2/2
f 25/33/32 35/36/35 26/37/36
f 34/32/31 5/5/5 35/36/35
f 22/38/37 4/3/3 23/39/38
f 27/40/39 35/36/35 36/41/40
f 36/41/40 5/5/5 7/6/6
f 22/38/37 8/7/7 6/4/4
f 29/42/41 36/41/40 37/43/42
f 37/43/42 7/6/6 9/8/8
f 19/44/43 8/7/7 21/45/44
f 30/46/45 37/43/42 38/47/46
f 38/47/46 9/8/8 11/10/10
f 19/44/43 12/11/11 10/9/9
f 30/46/45 39/48/47 31/49/48
f 38/47/46 13/12/12 39/48/47
f 17/50/49 12/11/11 18/51/50
f 31/49/48 40/52/51 28/53/52
f 39/48/47 15/15/15 40/52/51
f 24/54/53 14/13/13 17/50/49
f 32/55/30 40/52/51 33/56/33
f 33/56/33 15/15/15 2/16/16
f 24/54/53 3/17/2 16/14/14
f 1/1/1 2/57/16 3/2/2
f 1/1/1 4/3/3 6/4/4
f 7/6/6 5/5/5 6/4/4
f 9/8/8 7/6/6 8/7/7
f 11/10/10 9/8/8 10/9/9
f 13/12/12 11/10/10 12/11/11
f 13/12/12 14/13/13 16/14/14
f 2/16/16 15/15/15 16/14/14
f 18/18/17 19/21/20 20/19/18
f 19/21/20 21/58/54 22/22/21
f 25/25/24 26/59/55 27/26/25
f 27/26/25 29/60/56 30/28/27
f 32/31/30 33/34/33 34/32/31
f 33/34/33 2/57/16 1/1/1
f 20/35/34 23/39/38 4/3/3
f 25/33/32 34/32/31 35/36/35
f 34/32/31 1/1/1 5/5/5
f 22/38/37 6/4/4 4/3/3
f 27/40/39 26/37/36 35/36/35
f 36/41/40 35/36/35 5/5/5
f 22/38/37 21/45/44 8/7/7
f 29/42/41 27/40/39 36/41/40
f 37/43/42 36/41/40 7/6/6
f 19/44/43 10/9/9 8/7/7
f 30/46/45 29/42/41 37/43/42
f 38/47/46 37/43/42 9/8/8
f 19/44/43 18/51/50 12/11/11
f 30/46/45 38/47/46 39/48/47
f 38/47/46 11/10/10 13/12/12
f 17/50/49 14/13/13 12/11/11
f 31/49/48 39/48/47 40/52/51
f 39/48/47 13/12/12 15/15/15
f 24/54/53 16/14/14 14/13/13
f 32/55/30 28/53/52 40/52/51
f 33/56/33 40/52/51 15/15/15
f 24/54/53 20/61/34 3/17/2
